<svg viewBox="0 0 600 600" xmlns="http://www.w3.org/2000/svg"><g transform="translate(301 300) scale(1.2) translate(-301 -300)"><g stroke="#38bdf8" stroke-width="10" stroke-linecap="round"><path d="M167 175v40M197 175v40M227 175v40M257 175v40M167 385v40M197 385v40M227 385v40M257 385v40M87 255h40M87 285h40M87 315h40M87 345h40M297 255h33M297 285h33M297 315h33M297 345h33"/></g><rect x="127" y="215" width="170" height="170" rx="22" fill="#0a1830" stroke="#22d3ee" stroke-width="5"/><path d="M170 260v80m0-80l84 80m0-80v80" fill="none" stroke="#67e8f9" stroke-width="16" stroke-linecap="round" stroke-linejoin="round"/><circle cx="352" cy="300" r="6" fill="#22d3ee"/><path d="M372 262a40 40 0 010 76" fill="none" stroke="#38bdf8" stroke-width="12" stroke-linecap="round"/><path d="M412 225a90 90 0 010 150" fill="none" stroke="#0ea5e9" stroke-width="14" stroke-linecap="round" opacity=".85"/><path d="M457 185a145 145 0 010 230" fill="none" stroke="#0284c7" stroke-width="16" stroke-linecap="round" opacity=".7"/></g></svg>